<svg width="40" height="40" viewBox="0 0 40 40" fill="none" xmlns="http://www.w3.org/2000/svg">
<path d="M19.5833 39.1667C30.3989 39.1667 39.1667 30.3989 39.1667 19.5833C39.1667 8.76776 30.3989 0 19.5833 0C8.76776 0 0 8.76776 0 19.5833C0 30.3989 8.76776 39.1667 19.5833 39.1667Z" fill="#EFF9FF"/>
<path fill-rule="evenodd" clip-rule="evenodd" d="M21.423 9.00105C21.0474 8.98661 20.6739 9.12156 20.3925 9.37643C20.1684 9.57938 20.0162 9.84619 19.957 10.1382L19.9349 10.303L19.9299 10.4491L20.3741 16.9735C20.4295 17.8051 21.1615 18.4382 22.0133 18.39L28.6588 17.9567C29.0477 17.9286 29.4041 17.7524 29.6545 17.4668C29.8538 17.2393 29.9737 16.9562 29.9977 16.6585L30 16.4567L29.9904 16.3408C29.3029 12.2016 25.7085 9.12227 21.423 9.00105ZM21.4113 10.449L21.6287 10.4593C25.0119 10.6644 27.8318 13.0802 28.4854 16.3335L28.5182 16.5135L21.9214 16.945C21.888 16.9469 21.8537 16.9172 21.8511 16.8781L21.4113 10.449ZM16.7814 12.8453C17.502 12.7468 18.211 13.1245 18.4978 13.7606C18.5855 13.9348 18.6382 14.1239 18.6533 14.321L19.0419 19.8095C19.0471 19.8847 19.0827 19.9548 19.1409 20.0042C19.1845 20.0413 19.2381 20.0645 19.298 20.0712L19.3599 20.0724L24.9341 19.7366C25.3867 19.71 25.8305 19.8675 26.1604 20.1719C26.4902 20.4763 26.6768 20.9004 26.6744 21.3912C26.4265 25.0037 23.773 28.0237 20.159 28.8065C16.545 29.5893 12.8361 27.9474 11.0578 24.7848C10.5823 23.9695 10.2618 23.0778 10.1138 22.1749L10.0664 21.8359C10.0253 21.5821 10.0032 21.3257 10 21.0795L10.0031 20.8372C10.0134 17.0655 12.6616 13.804 16.3881 12.9243L16.6438 12.8681L16.7814 12.8453ZM17.0164 14.2781L16.9322 14.2877L16.7037 14.3393C13.7353 15.0548 11.6062 17.6103 11.488 20.621L11.4828 20.8661C11.4757 21.0525 11.4825 21.2392 11.505 21.4378L11.5328 21.6408C11.6321 22.495 11.9079 23.3206 12.3491 24.0772C13.8163 26.6863 16.8667 28.0367 19.839 27.3929C22.8113 26.7491 24.9936 24.2653 25.1958 21.3414C25.1959 21.2974 25.1774 21.2552 25.1446 21.225C25.1228 21.2049 25.0959 21.1912 25.0675 21.1851L25.024 21.1817L19.459 21.5169C18.9894 21.5503 18.5255 21.3992 18.17 21.0971C17.8146 20.7951 17.5968 20.3669 17.5652 19.91L17.177 14.4262C17.1763 14.4171 17.1739 14.4082 17.1568 14.373C17.1315 14.317 17.0765 14.2813 17.0164 14.2781Z" fill="#0962E8"/>
</svg>
